<svg xmlns="http://www.w3.org/2000/svg" viewBox="0 0 24 24">
  <path fill="#FF0000" d="M23.498 6.186a2.974 2.974 0 0 0-2.093-2.104C19.549 3.5 12 3.5 12 3.5s-7.549 0-9.405.582A2.974 2.974 0 0 0 .502 6.186 31.372 31.372 0 0 0 0 12a31.372 31.372 0 0 0 .502 5.814 2.974 2.974 0 0 0 2.093 2.104C4.451 20.5 12 20.5 12 20.5s7.549 0 9.405-.582a2.974 2.974 0 0 0 2.093-2.104A31.372 31.372 0 0 0 24 12a31.372 31.372 0 0 0-.502-5.814z"></path>
  <path fill="#FFFFFF" d="M9.75 15.02V8.98L15.5 12l-5.75 3.02z"></path>
</svg>